<svg xmlns="http://www.w3.org/2000/svg" id="Layer_2" data-name="Layer 2" viewBox="0 0 333.34 28.06"><defs><style>      .cls-1 {        fill-rule: evenodd;      }      .cls-1, .cls-2 {        fill: #0a57a1;      }      .cls-1, .cls-2, .cls-3 {        stroke-width: 0px;      }      .cls-3 {        fill: #e2383f;      }    </style></defs><g id="Layer_1-2" data-name="Layer 1"><g><g><path class="cls-2" d="M155.52,20.67v-1.89h8.4c.01.96.15,1.66.42,2.11.27.45.67.74,1.2.86.53.13,1.2.18,2.01.17h10.3c.93.04,1.75-.08,2.47-.36.72-.28,1.09-.93,1.13-1.95.02-.59-.08-1.06-.32-1.4-.24-.34-.75-.6-1.52-.76-.78-.16-1.96-.27-3.55-.31-1.59-.05-3.73-.07-6.41-.06-3.14,0-5.65-.1-7.53-.34-1.89-.24-3.3-.66-4.25-1.26-.94-.6-1.57-1.44-1.88-2.52-.31-1.08-.45-2.46-.42-4.13-.03-1.25.05-2.4.24-3.46.18-1.06.62-1.99,1.32-2.79.69-.79,1.8-1.41,3.3-1.86,1.51-.44,3.57-.67,6.2-.68h11.74c3.18.01,5.53.35,7.06,1.03,1.52.68,2.5,1.62,2.95,2.83.44,1.21.64,2.62.59,4.24v.87h-8.4c.02-.67-.05-1.21-.2-1.63-.16-.42-.53-.73-1.11-.92-.59-.2-1.51-.29-2.78-.29h-9.31c-.96,0-1.73.16-2.3.51-.57.34-.87.88-.88,1.61-.04.78.16,1.35.6,1.7s1.38.56,2.83.65c1.44.08,3.64.11,6.61.08,4.31-.05,7.63.11,9.97.48,2.34.37,3.96,1.18,4.84,2.44.89,1.26,1.31,3.2,1.27,5.83.04,2.43-.32,4.27-1.06,5.51-.75,1.24-2.11,2.08-4.1,2.5-1.99.42-4.82.62-8.51.59h-10.18c-2.54.02-4.6-.18-6.18-.59-1.58-.41-2.73-1.16-3.46-2.23-.73-1.07-1.09-2.59-1.08-4.56"></path><path class="cls-2" d="M197.88,18.1v-8.18c0-2.65.49-4.7,1.45-6.14.96-1.44,2.33-2.44,4.13-2.99,1.8-.55,3.96-.81,6.5-.79h9.88c2.97,0,5.35.17,7.16.52,1.8.36,3.16.93,4.08,1.73.91.8,1.52,1.86,1.82,3.19.3,1.33.43,2.95.39,4.89h-8.4v-.76c0-.97-.35-1.64-1.03-2.01-.68-.37-1.65-.55-2.9-.53h-9.16c-1.46,0-2.57.23-3.33.67-.76.44-1.28,1.07-1.55,1.89-.27.82-.4,1.8-.38,2.94v2.95c-.05,1.97.26,3.38.91,4.24.66.86,1.95,1.27,3.89,1.25h8.97c1.25.02,2.24-.06,2.96-.23.72-.17,1.23-.52,1.53-1.07.3-.54.44-1.38.43-2.5h8.4v2.57c.03,1.56-.22,2.95-.74,4.19s-1.52,2.22-2.99,2.95c-1.47.73-3.59,1.1-6.37,1.11h-13.55c-2.53.03-4.7-.24-6.5-.79-1.8-.55-3.18-1.55-4.13-2.99-.96-1.44-1.44-3.49-1.45-6.14"></path><path class="cls-1" d="M239.27,27.75L254.1.34h10.94l15.07,27.41h-9.35l-2.61-4.85h-17.03l-2.46,4.85h-9.39ZM259.56,6.7l-5.3,10.3h10.75l-5.45-10.3Z"></path><polygon class="cls-2" points="286.29 27.75 286.29 .34 299.32 .34 315.1 20.26 315.18 20.26 315.18 .34 323.58 .34 323.58 27.75 310.56 27.75 294.77 7.84 294.7 7.84 294.7 27.75 286.29 27.75"></polygon><path class="cls-2" d="M.04,21.09v-2.01h3.48v1.93c-.04,1.34.4,2.34,1.3,2.99.9.66,2.49.98,4.76.98h11.51c2.64.03,4.48-.32,5.5-1.06,1.02-.74,1.51-2.08,1.47-4.01.04-1.69-.38-2.84-1.26-3.45-.88-.61-2.45-.9-4.72-.87h-7.04c-3.75.04-6.72-.11-8.93-.45-2.2-.33-3.78-1.07-4.72-2.21C.44,11.8-.02,10.04,0,7.66c0-2.06.41-3.65,1.24-4.76.83-1.11,2.09-1.88,3.77-2.29C6.7.19,8.81-.01,11.36,0h7.99c3.04,0,5.4.26,7.07.79,1.68.53,2.84,1.33,3.5,2.4.65,1.07.97,2.42.94,4.04v.95h-3.48c0-1.08-.08-1.96-.27-2.64-.18-.68-.6-1.2-1.24-1.57-.65-.36-1.66-.61-3.05-.75-1.39-.13-3.29-.2-5.7-.19h-3.94c-2.37-.02-4.27.07-5.69.27-1.42.2-2.45.65-3.08,1.35-.63.7-.93,1.79-.92,3.27-.02,1.08.14,1.94.48,2.58.34.64,1.01,1.1,1.99,1.37.99.28,2.43.41,4.34.4h10.98c3.59-.01,6.2.53,7.84,1.62,1.64,1.09,2.44,2.8,2.42,5.11v1.78c-.03,2.21-.58,3.83-1.64,4.87-1.06,1.04-2.42,1.7-4.08,1.98-1.67.29-3.43.41-5.3.38h-10.3c-1.83.03-3.51-.13-5.05-.47-1.53-.34-2.77-1.01-3.7-2.01-.93-1-1.41-2.49-1.44-4.45"></path><path class="cls-2" d="M40.06,20.86V.34h3.71v20.48c-.02.89.12,1.64.42,2.27.3.62.88,1.1,1.74,1.43.86.33,2.12.5,3.78.5h12.87c1.66,0,2.92-.17,3.78-.5.86-.33,1.44-.81,1.74-1.43.3-.63.44-1.38.42-2.27V.34h3.71v20.52c.03,2.73-.73,4.63-2.27,5.68-1.54,1.05-4.04,1.56-7.5,1.51h-12.64c-3.45.05-5.95-.46-7.49-1.51-1.54-1.05-2.3-2.95-2.27-5.68"></path><path class="cls-1" d="M81.24,27.75V.34h21.92c2.6,0,4.57.29,5.89.87,1.32.58,2.21,1.44,2.65,2.59.44,1.15.65,2.58.62,4.3v2.23c-.03,1.89-.52,3.2-1.45,3.94-.94.74-2.13,1.15-3.58,1.24v.08c1.85.36,3.11.99,3.77,1.89.66.91.97,1.99.93,3.26v7h-3.48v-6.02c0-1.41-.23-2.46-.66-3.15-.44-.69-1.06-1.15-1.88-1.36-.81-.22-1.78-.32-2.91-.3h-18.09v10.83h-3.71ZM84.95,13.9h17.79c2.05.01,3.54-.29,4.48-.91.94-.62,1.4-1.64,1.39-3.07v-2.5c.02-1.02-.16-1.82-.55-2.41-.38-.59-1.06-1.02-2.05-1.27-.99-.25-2.38-.38-4.18-.37h-16.88v10.52Z"></path><polygon class="cls-2" points="120.84 27.75 120.84 .34 147.76 .34 147.76 3.37 124.55 3.37 124.55 12.12 146.85 12.12 146.85 15.15 124.55 15.15 124.55 24.72 147.91 24.72 147.91 27.75 120.84 27.75"></polygon><path class="cls-1" d="M327.29,3.62V.9h-1V.34h2.64v.56h-1v2.72h-.64ZM332.71,3.62V1.04h-.02l-.94,2.57h-.49l-.94-2.57h-.02v2.57h-.64V.34h1.02l.82,2.23.82-2.23h1.02v3.27h-.64Z"></path></g><path class="cls-3" d="M210.64,14.02c0-3.04,2.46-5.5,5.5-5.5s5.5,2.46,5.5,5.5-2.46,5.5-5.5,5.5-5.5-2.46-5.5-5.5"></path></g></g></svg>