<svg xmlns="http://www.w3.org/2000/svg" xmlns:xlink="http://www.w3.org/1999/xlink" contentStyleType="text/css" height="380px" preserveAspectRatio="none" style="width:628px;height:380px;background:#FFFFFF;" version="1.1" viewBox="0 0 628 380" width="628px" zoomAndPan="magnify"><defs/><g><!--cluster SureScan Takehome Project--><g id="cluster_SureScan Takehome Project"><path d="M8.5,6 L231.0322,6 A3.75,3.75 0 0 1 233.5322,8.5 L240.5322,28.2969 L618.5,28.2969 A2.5,2.5 0 0 1 621,30.7969 L621,371.39 A2.5,2.5 0 0 1 618.5,373.89 L8.5,373.89 A2.5,2.5 0 0 1 6,371.39 L6,8.5 A2.5,2.5 0 0 1 8.5,6 " fill="none" style="stroke:#000000;stroke-width:1.5;"/><line style="stroke:#000000;stroke-width:1.5;" x1="6" x2="240.5322" y1="28.2969" y2="28.2969"/><text fill="#000000" font-family="sans-serif" font-size="14" font-weight="bold" lengthAdjust="spacing" textLength="221.5322" x="10" y="20.9951">SureScan Takehome Project</text></g><!--cluster Clients--><g id="cluster_Clients"><path d="M32.5,49 L87.8594,49 A3.75,3.75 0 0 1 90.3594,51.5 L97.3594,71.2969 L594.5,71.2969 A2.5,2.5 0 0 1 597,73.7969 L597,143.8 A2.5,2.5 0 0 1 594.5,146.3 L32.5,146.3 A2.5,2.5 0 0 1 30,143.8 L30,51.5 A2.5,2.5 0 0 1 32.5,49 " fill="none" style="stroke:#000000;stroke-width:1.5;"/><line style="stroke:#000000;stroke-width:1.5;" x1="30" x2="97.3594" y1="71.2969" y2="71.2969"/><text fill="#000000" font-family="sans-serif" font-size="14" font-weight="bold" lengthAdjust="spacing" textLength="54.3594" x="34" y="63.9951">Clients</text></g><!--cluster APIs--><g id="cluster_APIs"><path d="M53.5,170.3 L89.1377,170.3 A3.75,3.75 0 0 1 91.6377,172.8 L98.6377,192.5969 L551.5,192.5969 A2.5,2.5 0 0 1 554,195.0969 L554,265.09 A2.5,2.5 0 0 1 551.5,267.59 L53.5,267.59 A2.5,2.5 0 0 1 51,265.09 L51,172.8 A2.5,2.5 0 0 1 53.5,170.3 " fill="none" style="stroke:#000000;stroke-width:1.5;"/><line style="stroke:#000000;stroke-width:1.5;" x1="51" x2="98.6377" y1="192.5969" y2="192.5969"/><text fill="#000000" font-family="sans-serif" font-size="14" font-weight="bold" lengthAdjust="spacing" textLength="34.6377" x="55" y="185.2951">APIs</text></g><!--entity surescan_image_transformers Library--><g id="elem_surescan_image_transformers Library"><rect fill="#F1F1F1" height="46.2969" rx="2.5" ry="2.5" style="stroke:#181818;stroke-width:0.5;" width="304.5303" x="116.73" y="311.59"/><rect fill="#F1F1F1" height="10" style="stroke:#181818;stroke-width:0.5;" width="15" x="401.2603" y="316.59"/><rect fill="#F1F1F1" height="2" style="stroke:#181818;stroke-width:0.5;" width="4" x="399.2603" y="318.59"/><rect fill="#F1F1F1" height="2" style="stroke:#181818;stroke-width:0.5;" width="4" x="399.2603" y="322.59"/><text fill="#000000" font-family="sans-serif" font-size="14" lengthAdjust="spacing" textLength="264.5303" x="131.73" y="344.5851">surescan_image_transformers Library</text></g><!--entity Web Client--><g id="elem_Web Client"><rect fill="#F1F1F1" height="46.2969" rx="2.5" ry="2.5" style="stroke:#181818;stroke-width:0.5;" width="116.3232" x="45.84" y="84"/><rect fill="#F1F1F1" height="10" style="stroke:#181818;stroke-width:0.5;" width="15" x="142.1632" y="89"/><rect fill="#F1F1F1" height="2" style="stroke:#181818;stroke-width:0.5;" width="4" x="140.1632" y="91"/><rect fill="#F1F1F1" height="2" style="stroke:#181818;stroke-width:0.5;" width="4" x="140.1632" y="95"/><text fill="#000000" font-family="sans-serif" font-size="14" lengthAdjust="spacing" textLength="76.3232" x="60.84" y="116.9951">Web Client</text></g><!--entity Desktop Client--><g id="elem_Desktop Client"><rect fill="#F1F1F1" height="46.2969" rx="2.5" ry="2.5" style="stroke:#181818;stroke-width:0.5;" width="142.7168" x="197.64" y="84"/><rect fill="#F1F1F1" height="10" style="stroke:#181818;stroke-width:0.5;" width="15" x="320.3568" y="89"/><rect fill="#F1F1F1" height="2" style="stroke:#181818;stroke-width:0.5;" width="4" x="318.3568" y="91"/><rect fill="#F1F1F1" height="2" style="stroke:#181818;stroke-width:0.5;" width="4" x="318.3568" y="95"/><text fill="#000000" font-family="sans-serif" font-size="14" lengthAdjust="spacing" textLength="102.7168" x="212.64" y="116.9951">Desktop Client</text></g><!--entity Python Typer TUI Client--><g id="elem_Python Typer TUI Client"><rect fill="#F1F1F1" height="46.2969" rx="2.5" ry="2.5" style="stroke:#181818;stroke-width:0.5;" width="205.4297" x="375.29" y="84"/><rect fill="#F1F1F1" height="10" style="stroke:#181818;stroke-width:0.5;" width="15" x="560.7197" y="89"/><rect fill="#F1F1F1" height="2" style="stroke:#181818;stroke-width:0.5;" width="4" x="558.7197" y="91"/><rect fill="#F1F1F1" height="2" style="stroke:#181818;stroke-width:0.5;" width="4" x="558.7197" y="95"/><text fill="#000000" font-family="sans-serif" font-size="14" lengthAdjust="spacing" textLength="165.4297" x="390.29" y="116.9951">Python Typer TUI Client</text></g><!--entity pybind11 bindings--><g id="elem_pybind11 bindings"><rect fill="#F1F1F1" height="46.2969" rx="2.5" ry="2.5" style="stroke:#181818;stroke-width:0.5;" width="169.4521" x="368.27" y="205.3"/><rect fill="#F1F1F1" height="10" style="stroke:#181818;stroke-width:0.5;" width="15" x="517.7221" y="210.3"/><rect fill="#F1F1F1" height="2" style="stroke:#181818;stroke-width:0.5;" width="4" x="515.7221" y="212.3"/><rect fill="#F1F1F1" height="2" style="stroke:#181818;stroke-width:0.5;" width="4" x="515.7221" y="216.3"/><text fill="#000000" font-family="sans-serif" font-size="14" lengthAdjust="spacing" textLength="129.4521" x="383.27" y="238.2951">pybind11 bindings</text></g><!--entity REST API--><g id="elem_REST API"><rect fill="#F1F1F1" height="46.2969" rx="2.5" ry="2.5" style="stroke:#181818;stroke-width:0.5;" width="102.6104" x="66.69" y="205.3"/><rect fill="#F1F1F1" height="10" style="stroke:#181818;stroke-width:0.5;" width="15" x="149.3004" y="210.3"/><rect fill="#F1F1F1" height="2" style="stroke:#181818;stroke-width:0.5;" width="4" x="147.3004" y="212.3"/><rect fill="#F1F1F1" height="2" style="stroke:#181818;stroke-width:0.5;" width="4" x="147.3004" y="216.3"/><text fill="#000000" font-family="sans-serif" font-size="14" lengthAdjust="spacing" textLength="62.6104" x="81.69" y="238.2951">REST API</text></g><!--entity C++ Module--><g id="elem_C++ Module"><rect fill="#F1F1F1" height="46.2969" rx="2.5" ry="2.5" style="stroke:#181818;stroke-width:0.5;" width="128.5938" x="204.7" y="205.3"/><rect fill="#F1F1F1" height="10" style="stroke:#181818;stroke-width:0.5;" width="15" x="313.2938" y="210.3"/><rect fill="#F1F1F1" height="2" style="stroke:#181818;stroke-width:0.5;" width="4" x="311.2938" y="212.3"/><rect fill="#F1F1F1" height="2" style="stroke:#181818;stroke-width:0.5;" width="4" x="311.2938" y="216.3"/><text fill="#000000" font-family="sans-serif" font-size="14" lengthAdjust="spacing" textLength="88.5938" x="219.7" y="238.2951">C++ Module</text></g><!--link Web Client to REST API--><g id="link_Web Client_REST API"><path d="M106.63,130.59 C109.14,151.92 112.1806,177.8509 114.6806,199.1509 " fill="none" id="Web Client-to-REST API" style="stroke:#181818;stroke-width:1.0;"/><polygon fill="#181818" points="115.38,205.11,118.3036,195.7051,114.7971,200.1441,110.3581,196.6376,115.38,205.11" style="stroke:#181818;stroke-width:1.0;"/></g><!--link Desktop Client to C++ Module--><g id="link_Desktop Client_C++ Module"><path d="M269,130.59 C269,151.92 269,177.81 269,199.11 " fill="none" id="Desktop Client-to-C++ Module" style="stroke:#181818;stroke-width:1.0;"/><polygon fill="#181818" points="269,205.11,273,196.11,269,200.11,265,196.11,269,205.11" style="stroke:#181818;stroke-width:1.0;"/></g><!--link Python Typer TUI Client to pybind11 bindings--><g id="link_Python Typer TUI Client_pybind11 bindings"><path d="M473.3,130.59 C468.83,151.92 463.3697,177.9374 458.9097,199.2374 " fill="none" id="Python Typer TUI Client-to-pybind11 bindings" style="stroke:#181818;stroke-width:1.0;"/><polygon fill="#181818" points="457.68,205.11,463.4396,197.1208,458.7047,200.2161,455.6094,195.4813,457.68,205.11" style="stroke:#181818;stroke-width:1.0;"/></g><!--link pybind11 bindings to surescan_image_transformers Library--><g id="link_pybind11 bindings_surescan_image_transformers Library"><path d="M413.07,252.08 C382.21,269.57 344.9098,290.7114 314.0698,308.1914 " fill="none" id="pybind11 bindings-to-surescan_image_transformers Library" style="stroke:#181818;stroke-width:1.0;"/><polygon fill="#181818" points="308.85,311.15,318.6522,310.192,313.1999,308.6845,314.7074,303.2322,308.85,311.15" style="stroke:#181818;stroke-width:1.0;"/></g><!--link REST API to surescan_image_transformers Library--><g id="link_REST API_surescan_image_transformers Library"><path d="M150.76,252.08 C176.09,269.57 206.053,290.2603 231.363,307.7403 " fill="none" id="REST API-to-surescan_image_transformers Library" style="stroke:#181818;stroke-width:1.0;"/><polygon fill="#181818" points="236.3,311.15,231.1676,302.7441,232.1858,308.3086,226.6214,309.3268,236.3,311.15" style="stroke:#181818;stroke-width:1.0;"/></g><!--link C++ Module to surescan_image_transformers Library--><g id="link_C++ Module_surescan_image_transformers Library"><path d="M269,252.08 C269,269.57 269,287.67 269,305.15 " fill="none" id="C++ Module-to-surescan_image_transformers Library" style="stroke:#181818;stroke-width:1.0;"/><polygon fill="#181818" points="269,311.15,273,302.15,269,306.15,265,302.15,269,311.15" style="stroke:#181818;stroke-width:1.0;"/></g><!--SRC=[bK_B2i8m4BpdAnQlui4V44Gz20h5LZo8I5fN6ziysAI78lwxAKLDVO3kPM5sPcV65a8PJbo2r4fdEMc9uAX2nWpF2dv2wCKLOPnn1GalC6y84UapPgu75mP-7in9AL0vUyURsMumXHRVFS4fsi9fytw8QfThxrGR94ZMymxZohfsusZUzJ9rAjHXE8Hc2NMomUVLB4x0Am9eqk_3KX-g4Zl_jzONjhxmNaZlitV4bJrgaaWM5Y8bJlMEUNBO3GQ3KMZoMh6zXuvVkxRK3rtO1x0b_vJucUuVKH3vTzaD]--></g></svg>