<svg xmlns="http://www.w3.org/2000/svg" xmlns:xlink="http://www.w3.org/1999/xlink" contentStyleType="text/css" height="447px" preserveAspectRatio="none" style="width:298px;height:447px;background:#FFFFFF;" version="1.1" viewBox="0 0 298 447" width="298px" zoomAndPan="magnify"><defs/><g><!--class Processor--><g id="elem_Processor"><rect codeLine="1" fill="#F1F1F1" height="80.5938" id="Processor" rx="2.5" ry="2.5" style="stroke:#181818;stroke-width:0.5;" width="152.0068" x="73.22" y="7"/><ellipse cx="111.6305" cy="23" fill="#ADD1B2" rx="11" ry="11" style="stroke:#181818;stroke-width:1.0;"/><path d="M114.5993,28.6406 Q114.0212,28.9375 113.3805,29.0781 Q112.7399,29.2344 112.0368,29.2344 Q109.5368,29.2344 108.2087,27.5938 Q106.8962,25.9375 106.8962,22.8125 Q106.8962,19.6875 108.2087,18.0313 Q109.5368,16.375 112.0368,16.375 Q112.7399,16.375 113.3805,16.5313 Q114.0368,16.6875 114.5993,16.9844 L114.5993,19.7031 Q113.9743,19.125 113.3805,18.8594 Q112.7868,18.5781 112.1618,18.5781 Q110.818,18.5781 110.1305,19.6563 Q109.443,20.7188 109.443,22.8125 Q109.443,24.9063 110.1305,25.9844 Q110.818,27.0469 112.1618,27.0469 Q112.7868,27.0469 113.3805,26.7813 Q113.9743,26.5 114.5993,25.9219 L114.5993,28.6406 Z " fill="#000000"/><text fill="#000000" font-family="sans-serif" font-size="14" lengthAdjust="spacing" textLength="67.9834" x="130.8329" y="27.8467">Processor</text><line style="stroke:#181818;stroke-width:0.5;" x1="74.22" x2="224.2268" y1="39" y2="39"/><line style="stroke:#181818;stroke-width:0.5;" x1="74.22" x2="224.2268" y1="47" y2="47"/><ellipse cx="84.22" cy="60.6484" fill="#84BE84" rx="3" ry="3" style="stroke:#038048;stroke-width:1.0;"/><text fill="#000000" font-family="sans-serif" font-size="14" lengthAdjust="spacing" textLength="126.0068" x="93.22" y="63.9951">cv2eigen(src, dst)</text><ellipse cx="84.22" cy="76.9453" fill="#84BE84" rx="3" ry="3" style="stroke:#038048;stroke-width:1.0;"/><text fill="#000000" font-family="sans-serif" font-size="14" lengthAdjust="spacing" textLength="126.0068" x="93.22" y="80.292">eigen2cv(src, dst)</text></g><!--class ImageProcessor--><g id="elem_ImageProcessor"><rect codeLine="6" fill="#F1F1F1" height="292.4531" id="ImageProcessor" rx="2.5" ry="2.5" style="stroke:#181818;stroke-width:0.5;" width="284.4531" x="7" y="147.6"/><ellipse cx="89.062" cy="163.6" fill="#ADD1B2" rx="11" ry="11" style="stroke:#181818;stroke-width:1.0;"/><path d="M92.0308,169.2406 Q91.4526,169.5375 90.812,169.6781 Q90.1714,169.8344 89.4683,169.8344 Q86.9683,169.8344 85.6401,168.1938 Q84.3276,166.5375 84.3276,163.4125 Q84.3276,160.2875 85.6401,158.6313 Q86.9683,156.975 89.4683,156.975 Q90.1714,156.975 90.812,157.1313 Q91.4683,157.2875 92.0308,157.5844 L92.0308,160.3031 Q91.4058,159.725 90.812,159.4594 Q90.2183,159.1781 89.5933,159.1781 Q88.2495,159.1781 87.562,160.2563 Q86.8745,161.3188 86.8745,163.4125 Q86.8745,165.5063 87.562,166.5844 Q88.2495,167.6469 89.5933,167.6469 Q90.2183,167.6469 90.812,167.3813 Q91.4058,167.1 92.0308,166.5219 L92.0308,169.2406 Z " fill="#000000"/><text fill="#000000" font-family="sans-serif" font-size="14" lengthAdjust="spacing" textLength="111.8291" x="109.562" y="168.4467">ImageProcessor</text><line style="stroke:#181818;stroke-width:0.5;" x1="8" x2="290.4531" y1="179.6" y2="179.6"/><rect fill="none" height="6" style="stroke:#C82930;stroke-width:1.0;" width="6" x="15" y="190.2484"/><text fill="#000000" font-family="sans-serif" font-size="14" lengthAdjust="spacing" textLength="211.5996" x="27" y="196.5951">std::string m_raw_image_path</text><rect fill="none" height="6" style="stroke:#C82930;stroke-width:1.0;" width="6" x="15" y="206.5453"/><text fill="#000000" font-family="sans-serif" font-size="14" lengthAdjust="spacing" textLength="153.043" x="27" y="212.892">cv::Mat m_raw_image</text><rect fill="none" height="6" style="stroke:#C82930;stroke-width:1.0;" width="6" x="15" y="222.8422"/><text fill="#000000" font-family="sans-serif" font-size="14" lengthAdjust="spacing" textLength="207.1904" x="27" y="229.1889">Eigen::Matrix m_eigen_image</text><line style="stroke:#181818;stroke-width:0.5;" x1="8" x2="290.4531" y1="236.4906" y2="236.4906"/><ellipse cx="18" cy="250.1391" fill="#84BE84" rx="3" ry="3" style="stroke:#038048;stroke-width:1.0;"/><text fill="#000000" font-family="sans-serif" font-size="14" lengthAdjust="spacing" textLength="205.1875" x="27" y="253.4857">ImageProcessor(image_path)</text><ellipse cx="18" cy="266.4359" fill="#84BE84" rx="3" ry="3" style="stroke:#038048;stroke-width:1.0;"/><text fill="#000000" font-family="sans-serif" font-size="14" lengthAdjust="spacing" textLength="175.7998" x="27" y="269.7826">read_image(image_path)</text><ellipse cx="18" cy="282.7328" fill="#84BE84" rx="3" ry="3" style="stroke:#038048;stroke-width:1.0;"/><text fill="#000000" font-family="sans-serif" font-size="14" lengthAdjust="spacing" textLength="97.2959" x="27" y="286.0795">reset_image()</text><ellipse cx="18" cy="299.0297" fill="#84BE84" rx="3" ry="3" style="stroke:#038048;stroke-width:1.0;"/><text fill="#000000" font-family="sans-serif" font-size="14" lengthAdjust="spacing" textLength="258.4531" x="27" y="302.3764">get_average_pixel_density() : double</text><ellipse cx="18" cy="315.3266" fill="#84BE84" rx="3" ry="3" style="stroke:#038048;stroke-width:1.0;"/><text fill="#000000" font-family="sans-serif" font-size="14" lengthAdjust="spacing" textLength="47.8037" x="27" y="318.6732">flip_x()</text><ellipse cx="18" cy="331.6234" fill="#84BE84" rx="3" ry="3" style="stroke:#038048;stroke-width:1.0;"/><text fill="#000000" font-family="sans-serif" font-size="14" lengthAdjust="spacing" textLength="47.8037" x="27" y="334.9701">flip_y()</text><ellipse cx="18" cy="347.9203" fill="#84BE84" rx="3" ry="3" style="stroke:#038048;stroke-width:1.0;"/><text fill="#000000" font-family="sans-serif" font-size="14" lengthAdjust="spacing" textLength="83.3369" x="27" y="351.267">rotate_left()</text><ellipse cx="18" cy="364.2172" fill="#84BE84" rx="3" ry="3" style="stroke:#038048;stroke-width:1.0;"/><text fill="#000000" font-family="sans-serif" font-size="14" lengthAdjust="spacing" textLength="93.3105" x="27" y="367.5639">rotate_right()</text><ellipse cx="18" cy="380.5141" fill="#84BE84" rx="3" ry="3" style="stroke:#038048;stroke-width:1.0;"/><text fill="#000000" font-family="sans-serif" font-size="14" lengthAdjust="spacing" textLength="78.5039" x="27" y="383.8607">grayscale()</text><ellipse cx="18" cy="396.8109" fill="#84BE84" rx="3" ry="3" style="stroke:#038048;stroke-width:1.0;"/><text fill="#000000" font-family="sans-serif" font-size="14" lengthAdjust="spacing" textLength="250.3594" x="27" y="400.1576">flipped_grayscale(output_path) : int</text><ellipse cx="18" cy="413.1078" fill="#84BE84" rx="3" ry="3" style="stroke:#038048;stroke-width:1.0;"/><text fill="#000000" font-family="sans-serif" font-size="14" lengthAdjust="spacing" textLength="222.5371" x="27" y="416.4545">get_image() : pybind11::array_t</text><ellipse cx="18" cy="429.4047" fill="#84BE84" rx="3" ry="3" style="stroke:#038048;stroke-width:1.0;"/><text fill="#000000" font-family="sans-serif" font-size="14" lengthAdjust="spacing" textLength="237.5898" x="27" y="432.7514">write_image(output_path, format)</text></g><!--reverse link Processor to ImageProcessor--><g id="link_Processor_ImageProcessor"><path codeLine="24" d="M149.23,105.86 C149.23,122.69 149.23,125.45 149.23,147.24 " fill="none" id="Processor-backto-ImageProcessor" style="stroke:#181818;stroke-width:1.0;"/><polygon fill="none" points="149.23,87.86,143.23,105.86,155.23,105.86,149.23,87.86" style="stroke:#181818;stroke-width:1.0;"/></g><!--SRC=[PP6zRiCm38JtF8L61uc7P1IwTkXGe6yWC1Aj291_GD6EZRJlNbboQxlTfE-El0EeFOGWFgZL649BudaGugI7ApgBJH58duK9V9nfGbSzREZNuQ3JWhSQBEwtb86Db879DLRKYk2XtEnI7V1zrlKWvJlmLflnwnoJ579Z55FihtpQ9nNhojIH44ps_bS2yY8bOECN1gJaSYDwPR09ZgVYAAGmRN_pAR3ohbDZdadlAR-fPM1K7YlU0NBslX1BC0KD7jVf3erQSTjprtCk6KDTmp_Dbg8HTjFDDUPoaH8e3gfaUP2BKTcqMN8MLKirvCkivtZvBCi_9_e6]--></g></svg>