<svg xmlns="http://www.w3.org/2000/svg" xmlns:xlink="http://www.w3.org/1999/xlink" contentStyleType="text/css" height="561px" preserveAspectRatio="none" style="width:472px;height:561px;background:#FFFFFF;" version="1.1" viewBox="0 0 472 561" width="472px" zoomAndPan="magnify"><defs/><g><!--class Processor--><g id="elem_Processor"><rect codeLine="1" fill="#F1F1F1" height="96.8906" id="Processor" rx="2.5" ry="2.5" style="stroke:#181818;stroke-width:0.5;" width="420.3789" x="26.03" y="7"/><ellipse cx="197.9778" cy="23" fill="#ADD1B2" rx="11" ry="11" style="stroke:#181818;stroke-width:1.0;"/><path d="M200.9465,28.6406 Q200.3684,28.9375 199.7278,29.0781 Q199.0871,29.2344 198.384,29.2344 Q195.884,29.2344 194.5559,27.5938 Q193.2434,25.9375 193.2434,22.8125 Q193.2434,19.6875 194.5559,18.0313 Q195.884,16.375 198.384,16.375 Q199.0871,16.375 199.7278,16.5313 Q200.384,16.6875 200.9465,16.9844 L200.9465,19.7031 Q200.3215,19.125 199.7278,18.8594 Q199.134,18.5781 198.509,18.5781 Q197.1653,18.5781 196.4778,19.6563 Q195.7903,20.7188 195.7903,22.8125 Q195.7903,24.9063 196.4778,25.9844 Q197.1653,27.0469 198.509,27.0469 Q199.134,27.0469 199.7278,26.7813 Q200.3215,26.5 200.9465,25.9219 L200.9465,28.6406 Z " fill="#000000"/><text fill="#000000" font-family="sans-serif" font-size="14" lengthAdjust="spacing" textLength="67.9834" x="218.4778" y="27.8467">Processor</text><line style="stroke:#181818;stroke-width:0.5;" x1="27.03" x2="445.4089" y1="39" y2="39"/><line style="stroke:#181818;stroke-width:0.5;" x1="27.03" x2="445.4089" y1="47" y2="47"/><ellipse cx="37.03" cy="60.6484" fill="#84BE84" rx="3" ry="3" style="stroke:#038048;stroke-width:1.0;"/><text fill="#000000" font-family="sans-serif" font-size="14" lengthAdjust="spacing" textLength="90.6377" x="46.03" y="63.9951">~Processor()</text><ellipse cx="37.03" cy="76.9453" fill="#84BE84" rx="3" ry="3" style="stroke:#038048;stroke-width:1.0;"/><text fill="#000000" font-family="sans-serif" font-size="14" lengthAdjust="spacing" textLength="195.3232" x="46.03" y="80.292">void read(std::string &amp;path)</text><ellipse cx="37.03" cy="93.2422" fill="#84BE84" rx="3" ry="3" style="stroke:#038048;stroke-width:1.0;"/><text fill="#000000" font-family="sans-serif" font-size="14" lengthAdjust="spacing" textLength="394.3789" x="46.03" y="96.5889">void write(std::string &amp;output_path, std::string &amp;format)</text></g><!--class ImageProcessor--><g id="elem_ImageProcessor"><rect codeLine="7" fill="#F1F1F1" height="390.2344" id="ImageProcessor" rx="2.5" ry="2.5" style="stroke:#181818;stroke-width:0.5;" width="458.4414" x="7" y="163.89"/><ellipse cx="176.0562" cy="179.89" fill="#ADD1B2" rx="11" ry="11" style="stroke:#181818;stroke-width:1.0;"/><path d="M179.0249,185.5306 Q178.4468,185.8275 177.8062,185.9681 Q177.1655,186.1244 176.4624,186.1244 Q173.9624,186.1244 172.6343,184.4838 Q171.3218,182.8275 171.3218,179.7025 Q171.3218,176.5775 172.6343,174.9213 Q173.9624,173.265 176.4624,173.265 Q177.1655,173.265 177.8062,173.4213 Q178.4624,173.5775 179.0249,173.8744 L179.0249,176.5931 Q178.3999,176.015 177.8062,175.7494 Q177.2124,175.4681 176.5874,175.4681 Q175.2437,175.4681 174.5562,176.5463 Q173.8687,177.6088 173.8687,179.7025 Q173.8687,181.7963 174.5562,182.8744 Q175.2437,183.9369 176.5874,183.9369 Q177.2124,183.9369 177.8062,183.6713 Q178.3999,183.39 179.0249,182.8119 L179.0249,185.5306 Z " fill="#000000"/><text fill="#000000" font-family="sans-serif" font-size="14" lengthAdjust="spacing" textLength="111.8291" x="196.5562" y="184.7367">ImageProcessor</text><line style="stroke:#181818;stroke-width:0.5;" x1="8" x2="464.4414" y1="195.89" y2="195.89"/><ellipse cx="18" cy="209.5384" fill="none" rx="3" ry="3" style="stroke:#038048;stroke-width:1.0;"/><text fill="#000000" font-family="sans-serif" font-size="14" lengthAdjust="spacing" textLength="211.5996" x="27" y="212.8851">std::string m_raw_image_path</text><ellipse cx="18" cy="225.8353" fill="none" rx="3" ry="3" style="stroke:#038048;stroke-width:1.0;"/><text fill="#000000" font-family="sans-serif" font-size="14" lengthAdjust="spacing" textLength="153.043" x="27" y="229.182">cv::Mat m_raw_image</text><ellipse cx="18" cy="242.1322" fill="none" rx="3" ry="3" style="stroke:#038048;stroke-width:1.0;"/><text fill="#000000" font-family="sans-serif" font-size="14" lengthAdjust="spacing" textLength="207.1904" x="27" y="245.4789">Eigen::Matrix m_eigen_image</text><ellipse cx="18" cy="258.4291" fill="none" rx="3" ry="3" style="stroke:#038048;stroke-width:1.0;"/><text fill="#000000" font-family="sans-serif" font-size="14" lengthAdjust="spacing" textLength="236.9678" x="27" y="261.7757">std::map m_transformations_map</text><line style="stroke:#181818;stroke-width:0.5;" x1="8" x2="464.4414" y1="269.0775" y2="269.0775"/><ellipse cx="18" cy="282.7259" fill="#84BE84" rx="3" ry="3" style="stroke:#038048;stroke-width:1.0;"/><text fill="#000000" font-family="sans-serif" font-size="14" lengthAdjust="spacing" textLength="335.002" x="27" y="286.0726">void cv2eigen(cv::Mat&amp; src, Eigen::Matrix&amp; dst)</text><ellipse cx="18" cy="299.0228" fill="#84BE84" rx="3" ry="3" style="stroke:#038048;stroke-width:1.0;"/><text fill="#000000" font-family="sans-serif" font-size="14" lengthAdjust="spacing" textLength="335.002" x="27" y="302.3695">void eigen2cv(Eigen::Matrix&amp; src, cv::Mat&amp; dst)</text><ellipse cx="18" cy="315.3197" fill="#84BE84" rx="3" ry="3" style="stroke:#038048;stroke-width:1.0;"/><text fill="#000000" font-family="sans-serif" font-size="14" lengthAdjust="spacing" textLength="291.8467" x="27" y="318.6664">ImageProcessor(std::string &amp;image_path)</text><ellipse cx="18" cy="331.6166" fill="#84BE84" rx="3" ry="3" style="stroke:#038048;stroke-width:1.0;"/><text fill="#000000" font-family="sans-serif" font-size="14" lengthAdjust="spacing" textLength="122.7529" x="27" y="334.9632">ImageProcessor()</text><ellipse cx="18" cy="347.9134" fill="#84BE84" rx="3" ry="3" style="stroke:#038048;stroke-width:1.0;"/><text fill="#000000" font-family="sans-serif" font-size="14" lengthAdjust="spacing" textLength="249.2861" x="27" y="351.2601">double get_average_pixel_density()</text><ellipse cx="18" cy="364.2103" fill="#84BE84" rx="3" ry="3" style="stroke:#038048;stroke-width:1.0;"/><text fill="#000000" font-family="sans-serif" font-size="14" lengthAdjust="spacing" textLength="131.373" x="27" y="367.557">void reset_image()</text><ellipse cx="18" cy="380.5072" fill="#84BE84" rx="3" ry="3" style="stroke:#038048;stroke-width:1.0;"/><text fill="#000000" font-family="sans-serif" font-size="14" lengthAdjust="spacing" textLength="81.8809" x="27" y="383.8539">void flip_x()</text><ellipse cx="18" cy="396.8041" fill="#84BE84" rx="3" ry="3" style="stroke:#038048;stroke-width:1.0;"/><text fill="#000000" font-family="sans-serif" font-size="14" lengthAdjust="spacing" textLength="81.8809" x="27" y="400.1507">void flip_y()</text><ellipse cx="18" cy="413.1009" fill="#84BE84" rx="3" ry="3" style="stroke:#038048;stroke-width:1.0;"/><text fill="#000000" font-family="sans-serif" font-size="14" lengthAdjust="spacing" textLength="117.4141" x="27" y="416.4476">void rotate_left()</text><ellipse cx="18" cy="429.3978" fill="#84BE84" rx="3" ry="3" style="stroke:#038048;stroke-width:1.0;"/><text fill="#000000" font-family="sans-serif" font-size="14" lengthAdjust="spacing" textLength="127.3877" x="27" y="432.7445">void rotate_right()</text><ellipse cx="18" cy="445.6947" fill="#84BE84" rx="3" ry="3" style="stroke:#038048;stroke-width:1.0;"/><text fill="#000000" font-family="sans-serif" font-size="14" lengthAdjust="spacing" textLength="112.5811" x="27" y="449.0414">void grayscale()</text><ellipse cx="18" cy="461.9916" fill="#84BE84" rx="3" ry="3" style="stroke:#038048;stroke-width:1.0;"/><text fill="#000000" font-family="sans-serif" font-size="14" lengthAdjust="spacing" textLength="213.3701" x="27" y="465.3382">pybind11::array_t get_image()</text><ellipse cx="18" cy="478.2884" fill="#84BE84" rx="3" ry="3" style="stroke:#038048;stroke-width:1.0;"/><text fill="#000000" font-family="sans-serif" font-size="14" lengthAdjust="spacing" textLength="252.4512" x="27" y="481.6351">pybind11::list get_transformations()</text><ellipse cx="18" cy="494.5853" fill="#84BE84" rx="3" ry="3" style="stroke:#038048;stroke-width:1.0;"/><text fill="#000000" font-family="sans-serif" font-size="14" lengthAdjust="spacing" textLength="432.4414" x="27" y="497.932">void apply_transformation(std::string &amp;transformation_name)</text><ellipse cx="18" cy="510.8822" fill="#84BE84" rx="3" ry="3" style="stroke:#038048;stroke-width:1.0;"/><text fill="#000000" font-family="sans-serif" font-size="14" lengthAdjust="spacing" textLength="327.8516" x="27" y="514.2289">int flipped_grayscale(std::string &amp;output_path)</text><ellipse cx="18" cy="527.1791" fill="#84BE84" rx="3" ry="3" style="stroke:#038048;stroke-width:1.0;"/><text fill="#000000" font-family="sans-serif" font-size="14" lengthAdjust="spacing" textLength="245.9297" x="27" y="530.5257">void read(std::string &amp;image_path)</text><ellipse cx="18" cy="543.4759" fill="#84BE84" rx="3" ry="3" style="stroke:#038048;stroke-width:1.0;"/><text fill="#000000" font-family="sans-serif" font-size="14" lengthAdjust="spacing" textLength="394.3789" x="27" y="546.8226">void write(std::string &amp;output_path, std::string &amp;format)</text></g><!--reverse link Processor to ImageProcessor--><g id="link_Processor_ImageProcessor"><path codeLine="31" d="M236.22,122.22 C236.22,139.33 236.22,141.82 236.22,163.65 " fill="none" id="Processor-backto-ImageProcessor" style="stroke:#181818;stroke-width:1.0;"/><polygon fill="none" points="236.22,104.22,230.22,122.22,242.22,122.22,236.22,104.22" style="stroke:#181818;stroke-width:1.0;"/></g><!--SRC=[fLEzRi8m4Dxp59vGK660CUhQeKEble5rs4UmvDYMxmX4_Nds1WUHED0kpPRlptTddx909DwZLqZae_WeHFyzVT-GSZaWhJTQH0HT4kkg8ex6rM8HW0zJnIaQnbpYZnoEB2_AbSYOlOyDyBBuAWgLwdXjeCQxOgQUHaOuINFHfSH1eTggUWEUiWFnOcfqYOlctDDu-PyAKj6gtIQYlEOi14Mr4fbv8JJnjDFasAgsdCcIzHOqclBUyX6D_JmMNr7jZpkBeaQMq69C7dD6ApKwCjpDxefwNKhEyBqrGPxlePdRCp1AYtj-X4TJ7tAYZj2H0dixB7Gxu_HcKrKGUqvogZkh9ysWWT1V34TmDBm7unt97ft7M4D3naoRbG4Xs6wco6UTSz91WzS0upYD8g2MOpk_lUM_z-BkHl-r7UDAF7-krxCr-G40]--></g></svg>